Coordinates
version=1
nRows=7
nColumns=40
inDegrees=yes

Units are S.I. units (second, meters, Newtons, ...)
If the header above contains a line with 'inDegrees', this indicates whether rotational values are in degrees (yes) or radians (no).

endheader
time	pelvis_tilt	pelvis_list	pelvis_rotation	pelvis_tx	pelvis_ty	pelvis_tz	hip_flexion_r	hip_adduction_r	hip_rotation_r	knee_angle_r	knee_angle_r_beta	ankle_angle_r	subtalar_angle_r	mtp_angle_r	hip_flexion_l	hip_adduction_l	hip_rotation_l	knee_angle_l	knee_angle_l_beta	ankle_angle_l	subtalar_angle_l	mtp_angle_l	lumbar_extension	lumbar_bending	lumbar_rotation	arm_flex_r	arm_add_r	arm_rot_r	elbow_flex_r	pro_sup_r	wrist_flex_r	wrist_dev_r	arm_flex_l	arm_add_l	arm_rot_l	elbow_flex_l	pro_sup_l	wrist_flex_l	wrist_dev_l
     14.98000000	      0.68911233	     -0.20021449	      5.29026140	      1.27239902	      0.88932490	     -0.52448471	     -1.11975307	      1.44213275	     -2.83766274	     58.27352891	      1.01706495	    -11.77937377	    -12.39548598	      0.00000000	     21.89022251	      4.45572696	     -0.01068318	     26.06732820	      0.45496070	      6.93386334	     10.48808918	      0.00000000	    -16.01704178	     -4.83371960	      9.61467184	      0.00000000	    -14.97774838	      0.00000000	     75.00019525	     45.00000026	      0.00000000	      0.00000000	      0.00000000	    -14.97774838	      0.00000000	     75.00019525	     45.00000026	      0.00000000	      0.00000000
     14.99000000	      1.43985122	      0.50991956	      6.10886300	      1.26958708	      0.88516766	     -0.52496992	      1.08677114	     -0.00835871	     -4.44990728	     61.84638060	      1.07942297	    -10.88879895	    -13.80026219	      0.00000000	     22.12617744	      5.11626539	      0.37420028	     31.54645786	      0.55058956	      9.40816544	     10.36092469	      0.00000000	    -17.52306287	     -5.64554342	      7.18646804	      0.00000000	    -14.97780654	      0.00000000	     75.00019515	     45.00000026	      0.00000000	      0.00000000	      0.00000000	    -14.97780654	      0.00000000	     75.00019515	     45.00000026	      0.00000000	      0.00000000
     15.00000000	      2.12575111	      1.32495308	      7.03214600	      1.26720131	      0.88159284	     -0.52589476	      3.27471297	     -1.67520119	     -5.89273182	     64.79765144	      1.13093237	    -10.00124551	    -14.80372862	      0.00000000	     21.72250738	      5.95030309	      1.06522949	     36.03044178	      0.62884984	     11.94858131	     10.50166925	      0.00000000	    -18.98096038	     -6.40135601	      4.52078235	      0.00000000	    -14.97786996	      0.00000000	     75.00019504	     45.00000026	      0.00000000	      0.00000000	      0.00000000	    -14.97786996	      0.00000000	     75.00019504	     45.00000026	      0.00000000	      0.00000000
     15.01000000	      2.40882413	      2.12505126	      7.73529998	      1.26428675	      0.87808619	     -0.52644104	      6.11140931	     -3.36183678	     -6.78476314	     67.48449823	      1.17782669	     -8.90936878	    -15.54062859	      0.00000000	     20.80675816	      6.47825725	      1.15476114	     38.66053690	      0.67475366	     14.24966755	     11.34827207	      0.00000000	    -20.12987834	     -7.13553612	      2.07411821	      0.00000000	    -14.97793892	      0.00000000	     75.00019493	     45.00000026	      0.00000000	      0.00000000	      0.00000000	    -14.97793892	      0.00000000	     75.00019493	     45.00000026	      0.00000000	      0.00000000
     15.02000000	      2.74408189	      2.99450566	      8.30804248	      1.26115081	      0.87558952	     -0.52689927	      8.87800234	     -5.19228019	     -7.40603010	     69.51076990	      1.21319180	     -8.06526874	    -15.99722503	      0.00000000	     18.90666528	      6.77024439	      0.48023520	     39.49235307	      0.68927159	     16.29525158	     12.59061349	      0.00000000	    -21.41738740	     -7.81865419	     -0.17084280	      0.00000000	    -14.97798009	      0.00000000	     75.00019486	     45.00000026	      0.00000000	      0.00000000	      0.00000000	    -14.97798009	      0.00000000	     75.00019486	     45.00000026	      0.00000000	      0.00000000
     15.03000000	      3.08055912	      3.35036166	      8.62330285	      1.25821210	      0.87352451	     -0.52668338	     11.70112210	     -6.12749674	     -7.32487058	     70.90147996	      1.23746427	     -6.74540440	    -15.89086036	      0.00000000	     16.65868123	      6.18659454	     -0.76294496	     39.66209068	      0.69223407	     18.90692939	     15.68521186	      0.00000000	    -22.54505468	     -7.97717528	     -2.06460234	      0.00000000	    -14.97808695	      0.00000000	     75.00019468	     45.00000026	      0.00000000	      0.00000000	      0.00000000	    -14.97808695	      0.00000000	     75.00019468	     45.00000026	      0.00000000	      0.00000000
     15.04000000	      3.48703968	      3.46356918	      9.02519536	      1.25518857	      0.87235612	     -0.52710924	     14.25483807	     -6.85709534	     -7.43288357	     71.43141408	      1.24671337	     -5.43105554	    -16.12284958	      0.00000000	     14.20025169	      5.57813090	     -1.64218084	     39.51184862	      0.68961185	     20.67310066	     16.69396199	      0.00000000	    -23.66779428	     -7.73590329	     -4.19990873	      0.00000000	    -14.97813754	      0.00000000	     75.00019459	     45.00000026	      0.00000000	      0.00000000	      0.00000000	    -14.97813754	      0.00000000	     75.00019459	     45.00000026	      0.00000000	      0.00000000
